<!-- icon666.com - MILLIONS vector ICONS FREE --><svg id="Layer_1" enable-background="new 0 0 512 512" viewBox="0 0 512 512" xmlns="http://www.w3.org/2000/svg"><g><path d="m355.22 156.78c-27.76-27.74-61.14-41.81-99.22-41.81-38.1 0-71.49 14.07-99.22 41.81-27.74 27.74-41.81 61.12-41.81 99.22 0 38.12 14.07 71.51 41.81 99.22 27.73 27.74 61.12 41.81 99.22 41.81 38.08 0 71.46-14.07 99.22-41.81 27.74-27.73 41.81-61.12 41.81-99.22 0-38.08-14.07-71.46-41.81-99.22zm-34.84 163.6c-18.02 18.02-39.68 27.15-64.38 27.15-24.72 0-46.38-9.13-64.38-27.15-18.02-18-27.15-39.66-27.15-64.38 0-24.7 9.13-46.36 27.15-64.38s39.68-27.15 64.38-27.15c24.68 0 46.34 9.13 64.38 27.15 18.02 18.04 27.15 39.7 27.15 64.38 0 24.7-9.13 46.36-27.15 64.38z" fill="#8338ec" style="fill: rgb(110, 51, 170);"></path></g></svg>